<svg xmlns="http://www.w3.org/2000/svg" viewBox="0 0 333334 199007" shape-rendering="geometricPrecision" text-rendering="geometricPrecision" image-rendering="optimizeQuality" fill-rule="evenodd" clip-rule="evenodd"><path d="M31367 0h270601c8631 0 16474 3528 22156 9210 5683 5683 9211 13526 9211 22156v136275c0 8629-3529 16472-9211 22155-5683 5683-13526 9211-22155 9211H31368c-8629 0-16473-3528-22156-9211C3530 184114 2 176272 2 167641V31366c0-8631 3528-16474 9210-22156S22738 0 31369 0zm270601 10811H31367c-5647 0-10785 2315-14513 6043s-6043 8866-6043 14513v136275c0 5646 2315 10784 6043 14512 3729 3729 8868 6044 14513 6044h270601c5645 0 10783-2315 14512-6044 3728-3729 6044-8867 6044-14511V31368c0-5645-2315-10784-6043-14513-3728-3728-8867-6043-14513-6043z" fill="gray" fill-rule="nonzero"/><path d="M218507 135366v-6487c592 148 1926 148 2594 148 3706 0 5708-1556 6931-5559 0-74 705-2372 705-2409l-14085-39032h8673l9861 31730h147l9861-31730h8451l-14606 41033c-3334 9452-7189 12492-15270 12492-667 0-2670-74-3261-185zM113810 72753c2001-2503 3359-5863 3001-9297-2930 145-6503 1932-8572 4437-1859 2145-3504 5646-3074 8936 3288 285 6573-1644 8646-4076zm2963 4718c-4775-285-8835 2710-11115 2710-2282 0-5774-2567-9550-2498-4916 72-9478 2852-11972 7272-5131 8844-1354 21961 3635 29164 2423 3563 5343 7486 9191 7346 3635-143 5061-2354 9480-2354 4416 0 5700 2354 9547 2283 3991-71 6486-3565 8909-7132 2780-4062 3918-7984 3989-8198-71-72-7695-2996-7766-11767-72-7343 5986-10835 6271-11052-3421-5059-8765-5630-10619-5773zm41578-9938c10378 0 17606 7154 17606 17570 0 10452-7376 17644-17866 17644h-11491v18274h-8303V67533h20054zm-11751 28245h9526c7228 0 11343-3891 11343-10638 0-6746-4114-10600-11305-10600h-9563v21239zm31526 14160c0-6821 5226-11009 14494-11529l10674-630v-3002c0-4337-2929-6932-7820-6932-4635 0-7526 2224-8230 5708h-7561c445-7043 6449-12232 16087-12232 9451 0 15493 5004 15493 12825v26874h-7673v-6413h-185c-2260 4337-7191 7080-12306 7080-7636 0-12974-4745-12974-11750zm25168-3522v-3076l-9600 593c-4782 333-7487 2446-7487 5782 0 3410 2817 5634 7117 5634 5596 0 9970-3855 9970-8933z"/></svg>