<svg xmlns="http://www.w3.org/2000/svg" shape-rendering="geometricPrecision" text-rendering="geometricPrecision" image-rendering="optimizeQuality" fill-rule="evenodd" clip-rule="evenodd" viewBox="0 0 512 345.41"><path d="M491.928 273.375l-.251-.939c-3.13-11.194-10.428-20.106-19.741-25.481a42.638 42.638 0 00-32.449-4.252c-11.395 3.054-20.478 10.439-25.945 19.907l-.016-.008a42.635 42.635 0 00-4.358 31.946l.253.946c3.128 11.172 10.439 20.079 19.778 25.472l-.008.016a42.629 42.629 0 0031.94 4.358l.955-.256c11.188-3.133 20.093-10.427 25.467-19.737a42.623 42.623 0 004.375-31.972zM270.243 129.853c12.159 0 23.825 2.093 34.671 5.924l11.426-25.612c-11.55-7.858-20.438-19.714-24.324-34.223-4.306-16.077-1.682-32.394 6.043-45.774l.335-.534c7.764-13.12 20.447-23.326 36.286-27.568 16.078-4.307 32.395-1.682 45.775 6.043l.533.335c13.12 7.764 23.326 20.446 27.569 36.286 4.306 16.074 1.682 32.394-6.043 45.774l-.335.534c-7.765 13.119-20.447 23.326-36.287 27.568a60.022 60.022 0 01-32.665-.411l-11.317 25.369c31.315 17.944 52.415 51.694 52.415 90.37 0 6.255-.551 12.379-1.609 18.329l22.102 5.885a62.238 62.238 0 012.533-4.879v-.037c7.861-13.614 20.919-24.232 37.301-28.623 16.358-4.383 32.967-1.708 46.588 6.155 13.643 7.876 24.274 20.933 28.659 37.3l.016.062c4.359 16.338 1.683 32.92-6.171 46.526-7.874 13.64-20.933 24.271-37.298 28.658l-.184.046c-16.297 4.315-32.834 1.634-46.404-6.199h-.037c-13.616-7.862-24.232-20.916-28.623-37.297l-.032-.122a61.12 61.12 0 01-1.561-23.616l-21.822-5.809c-14.753 39.541-52.856 67.703-97.54 67.703-50.933 0-93.321-36.589-102.315-84.917l-47.276 5.488c-.131 9.673-2.6 19.454-7.632 28.487a9.295 9.295 0 01-.957 1.657 60.148 60.148 0 01-36.125 27.298c-14.683 3.932-30.861 2.339-45.145-5.686a9.535 9.535 0 01-1.44-.859c-13.984-8.372-23.38-21.524-27.292-36.122-3.934-14.682-2.341-30.863 5.684-45.145.204-.421.44-.831.709-1.223 8.347-14.092 21.568-23.568 36.272-27.506 14.695-3.938 30.893-2.331 45.191 5.731l.583.311c13.736 7.93 23.179 20.453 27.494 34.512l48.174-5.594-.007-.514c0-26.285 9.747-50.293 25.823-68.61l-32.534-36.955a61.127 61.127 0 01-19.768 9.317l-.122.032c-16.318 4.336-32.878 1.657-46.465-6.187-13.641-7.874-24.273-20.933-28.659-37.296l-.032-.123c-4.336-16.318-1.658-32.879 6.185-46.467 7.874-13.64 20.934-24.274 37.302-28.66 16.357-4.383 32.965-1.708 46.586 6.155 13.642 7.875 24.274 20.935 28.66 37.3 4.383 16.357 1.708 32.966-6.155 46.587a62.054 62.054 0 01-4.111 6.226l32.695 37.137c17.761-14.107 40.233-22.537 64.677-22.537zm-109.452-30.13a42.643 42.643 0 004.252-32.449c-3.059-11.411-10.43-20.494-19.87-25.943a42.636 42.636 0 00-32.448-4.252c-11.413 3.059-20.495 10.429-25.945 19.87a42.638 42.638 0 00-4.374 31.973l.254.946a42.546 42.546 0 0019.739 25.472 42.626 42.626 0 0031.97 4.375l.948-.253c11.19-3.132 20.099-10.428 25.474-19.739zm225.532-18.597a41.464 41.464 0 004.139-31.561c-2.929-10.935-9.926-19.674-18.906-25.006l-.48-.259a41.46 41.46 0 00-31.561-4.14c-10.935 2.929-19.673 9.926-25.006 18.906l-.259.48a41.464 41.464 0 00-4.139 31.562c2.929 10.934 9.926 19.673 18.906 25.005l.48.259a41.463 41.463 0 0031.561 4.14c10.935-2.93 19.673-9.926 25.006-18.906l.259-.48zM39.544 293.794c9.931 5.735 21.268 6.896 31.559 4.14 10.298-2.759 19.537-9.426 25.263-19.347l.019-.034c5.723-9.935 6.878-21.271 4.121-31.568-2.754-10.286-9.437-19.521-19.385-25.265l-.437-.269c-9.825-5.505-20.98-6.586-31.124-3.869-10.286 2.754-19.521 9.437-25.264 19.385l-.016.028c-5.721 9.924-6.88 21.249-4.124 31.533 2.759 10.298 9.428 19.537 19.347 25.263l.041.003zm264.711-117.917c-1.487-1.017-3.176-1.471-4.883-1.125-1.704.327-3.175 1.235-4.193 2.706l-5.789 8.168c-3.911-1.753-8.902-2.896-13.143-3.506l-1.815-10.67c-.343-1.801-1.252-3.162-2.613-4.195-1.471-1.015-3.051-1.361-4.866-1.015l-13.378 2.378c-1.706.344-3.067 1.141-4.193 2.612-1.017 1.471-1.471 3.066-1.143 4.883l1.705 9.747c-4.115 1.72-8.198 4.225-11.672 7.025l-9.075-6.242c-1.471-1.017-3.052-1.471-4.757-1.127-1.705.344-3.176 1.251-4.193 2.722l-7.714 11c-1.017 1.471-1.471 3.16-1.126 4.867.328 1.814 1.236 3.176 2.722 4.193l8.153 5.79c-1.721 3.879-2.896 8.933-3.506 13.142l-10.656 1.815c-1.815.344-3.176 1.253-4.209 2.614-1.016 1.471-1.345 3.05-1.016 4.865l2.379 13.378c.344 1.707 1.141 3.068 2.612 4.193 1.471 1.033 3.066 1.487 4.882 1.143l9.748-1.705c1.798 4.271 4.256 8.105 7.025 11.798l-6.242 8.95c-1.017 1.471-1.471 3.065-1.127 4.756.344 1.705 1.251 3.176 2.722 4.193l11.11 7.824a6.248 6.248 0 004.866 1.032c1.705-.344 3.176-1.142 4.317-2.612l5.774-8.278c3.975 1.753 8.858 2.864 13.159 3.521l1.816 10.654c.328 1.817 1.236 3.178 2.597 4.195 1.486 1.016 3.067 1.361 4.882 1.016l13.378-2.379c1.705-.343 3.051-1.141 4.193-2.612 1.018-1.471 1.471-3.052 1.128-4.866l-1.691-9.747c4.303-1.815 8.058-4.257 11.782-7.041l8.965 6.241c1.471 1.018 3.052 1.471 4.867 1.128 1.814-.328 3.175-1.236 4.193-2.722l7.824-11.11c1.017-1.471 1.361-3.176 1.017-4.867-.329-1.705-1.127-3.176-2.598-4.317l-8.276-5.664c1.721-3.881 2.894-8.936 3.504-13.144l10.656-1.815c1.815-.344 3.176-1.251 4.209-2.612 1.017-1.471 1.361-3.052 1.017-4.867l-2.378-13.378c-.346-1.705-1.143-3.068-2.614-4.193-1.471-1.034-3.066-1.487-4.881-1.143l-9.749 1.706c-1.877-4.241-4.115-8.058-7.025-11.673l6.244-9.076c1.017-1.471 1.471-3.066 1.125-4.756-.344-1.705-1.251-3.176-2.722-4.21l-11-7.698-.328.11zm-34.002 28.947c15.789 0 28.588 12.799 28.588 28.586 0 15.788-12.799 28.587-28.588 28.587-15.786 0-28.585-12.799-28.585-28.587 0-15.787 12.799-28.586 28.585-28.586z"/></svg>